<svg xmlns="http://www.w3.org/2000/svg" width="76" height="76" viewBox="0 0 76 76">
  <path id="Icon_awesome-check-circle" data-name="Icon awesome-check-circle" d="M76.562,38.562a38,38,0,1,1-38-38A38,38,0,0,1,76.562,38.562Zm-42.4,20.121L62.361,30.49a2.452,2.452,0,0,0,0-3.467l-3.467-3.467a2.452,2.452,0,0,0-3.467,0L32.433,46.548,21.7,35.813a2.452,2.452,0,0,0-3.467,0l-3.467,3.467a2.452,2.452,0,0,0,0,3.467L30.7,58.683a2.452,2.452,0,0,0,3.467,0Z" transform="translate(-0.563 -0.563)" fill="#df2a19"/>
</svg>
