<?xml version="1.0" encoding="utf-8"?>
<!-- Generator: Adobe Illustrator 25.4.1, SVG Export Plug-In . SVG Version: 6.00 Build 0)  -->
<svg version="1.1" id="레이어_1" xmlns="http://www.w3.org/2000/svg" xmlns:xlink="http://www.w3.org/1999/xlink" x="0px"
	 y="0px" viewBox="0 0 276 464" style="enable-background:new 0 0 276 464;" xml:space="preserve">
<style type="text/css">
	.st0{fill:#DF2A19;}
</style>
<path id="Icon_awesome-check-circle" class="st0" d="M176,232c0,21-17,38-38,38s-38-17-38-38s17-38,38-38S176,211,176,232z
	 M133.6,252.1l28.2-28.2c1-1,1-2.5,0-3.5l-3.5-3.5c-1-1-2.5-1-3.5,0l-23,23l-10.7-10.7c-1-1-2.5-1-3.5,0l-3.5,3.5c-1,1-1,2.5,0,3.5
	l15.9,15.9C131.1,253.1,132.6,253.1,133.6,252.1L133.6,252.1z"/>
</svg>
