<?xml version="1.0" encoding="utf-8"?>
<!-- Generator: Adobe Illustrator 25.4.1, SVG Export Plug-In . SVG Version: 6.00 Build 0)  -->
<svg version="1.1" id="레이어_1" xmlns="http://www.w3.org/2000/svg" xmlns:xlink="http://www.w3.org/1999/xlink" x="0px"
	 y="0px" viewBox="0 0 276 465" style="enable-background:new 0 0 276 465;" xml:space="preserve">
<style type="text/css">
	.st0{display:none;}
	.st1{display:inline;fill:none;stroke:#D4D4D4;}
	.st2{fill:#DF2A19;}
	.st3{fill:none;stroke:#DFDFDF;}
	.st4{opacity:0.74;fill:#F68B81;enable-background:new    ;}
	.st5{opacity:0.78;fill:#DF2A19;enable-background:new    ;}
	.st6{fill:#DE4B3E;}
	.st7{font-family:'NotoSansKR-Regular-KSCpc-EUC-H';}
	.st8{font-size:16px;}
	.st9{font-family:'NotoSansCJKkr-Bold-KSCpc-EUC-H';}
	.st10{font-size:32px;}
	.st11{fill:#FFFFFF;}
</style>
<g id="그룹_863" transform="translate(-98 -414)">
	<g id="그룹_859" transform="translate(113 429)">
		<g id="그룹_857" transform="translate(0 0)">
			<g id="그룹_856">
				<g id="그룹_855">
					<g transform="matrix(1, 0, 0, 1, -15, -15)">
						<g id="사각형_453-2_00000023973473373684546640000017667793700337408692_" transform="translate(15 15)" class="st0">
							<path class="st1" d="M9-14.5h228c13,0,23.5,10.5,23.5,23.5v417c0,13-10.5,23.5-23.5,23.5H9c-13,0-23.5-10.5-23.5-23.5V9
								C-14.5-4-4-14.5,9-14.5z"/>
						</g>
					</g>
					<g id="사각형_455" transform="translate(0 391)">
						<path class="st2" d="M-15-15h276l0,0v50c0,13.3-10.7,24-24,24H9c-13.3,0-24-10.7-24-24V-15L-15-15z"/>
						<path class="st3" d="M-14-14.5h274c0.3,0,0.5,0.2,0.5,0.5v49c0,13-10.5,23.5-23.5,23.5H9C-4,58.5-14.5,48-14.5,35v-49
							C-14.5-14.3-14.3-14.5-14-14.5z"/>
					</g>
				</g>
				<g id="그룹_851" transform="translate(209.289 16.176)">
					<path id="Icon_ionic-ios-water" class="st4" d="M0.6,21.7c3.1,2.6,6.6,4.6,10.4,6.1c0.3,0.1,0.7,0,0.8-0.3
						c1.9-3.6,3.3-7.5,4.1-11.6C17.2,10,17.4,4,15.5-1.7c0-0.1-0.1-0.2-0.1-0.3c-0.6-1.6-1.4-3.1-2.6-4.5c-0.6-0.7-1.3-1.4-2.1-2
						C7.2-11.2,2.3-12-2-10.3c-7.1,2.8-10.8,10.8-8.2,18C-8.1,13.5-4.1,18.1,0.6,21.7z"/>
					<path id="Icon_ionic-ios-water-2" class="st5" d="M22.2,21.7c-3.1,2.6-6.6,4.6-10.4,6.1c-0.3,0.1-0.7,0-0.8-0.3
						C9.1,23.9,7.7,20,6.9,15.9C5.6,10,5.3,4.1,7.2-1.7c0-0.1,0.1-0.2,0.1-0.3c0.6-1.6,1.4-3.1,2.6-4.5c0.6-0.7,1.3-1.4,2.1-2
						c3.6-2.8,8.5-3.5,12.8-1.9c7.1,2.8,10.8,10.8,8.2,18C30.9,13.4,26.9,18,22.2,21.7z"/>
				</g>
			</g>
		</g>
	</g>
	<text transform="matrix(1 0 0 1 121 458)" class="st6 st7 st8">2021.01.19</text>
	<text transform="matrix(1 0 0 1 121 773)" class="st6 st9 st10">전혈 320ML</text>
	<text transform="matrix(1 0 0 1 242 865)" class="st11 st7 st8">01-23-456789</text>
	<path id="Icon_awesome-share-alt" class="st6" d="M346.6,767.3c-0.8,0-1.6,0.3-2.3,0.8l-3.9-2.4c0.1-0.5,0.1-1,0-1.5l3.9-2.4
		c0.6,0.5,1.4,0.8,2.3,0.8c2,0,3.6-1.6,3.6-3.6s-1.7-3.6-3.7-3.6s-3.5,1.6-3.6,3.6c0,0.3,0,0.5,0.1,0.8l-3.9,2.4
		c-0.6-0.5-1.4-0.8-2.3-0.8c-2,0-3.6,1.6-3.6,3.6s1.6,3.6,3.6,3.6l0,0c0.8,0,1.6-0.3,2.3-0.8l3.9,2.4c-0.1,0.3-0.1,0.5-0.1,0.8
		c0,2,1.6,3.6,3.6,3.7c2,0,3.6-1.6,3.7-3.6C350.3,769,348.7,767.3,346.6,767.3C346.7,767.3,346.6,767.3,346.6,767.3L346.6,767.3z"/>
	<text transform="matrix(1 0 0 1 122 728)" class="st6 st9 st8">인천멋사혈액원</text>
</g>
</svg>
