<svg width="58" height="61" viewBox="0 0 58 61" fill="none" xmlns="http://www.w3.org/2000/svg">
<ellipse cx="19.2812" cy="26.25" rx="12.6562" ry="11.25" fill="#FFE600"/>
<path d="M2.85861 30.2276C8.6036 29.7578 13.5501 24.8335 15.3052 22.43C15.8714 25.1573 16.4466 30.534 14.2181 30.2232C11.4326 29.8346 -4.32264 30.8148 2.85861 30.2276Z" fill="#FFE600" stroke="#FFE500"/>
<path d="M12.5794 60C-0.229323 44.4232 10.8025 36.375 16.2268 33H24.1217C31.0281 37.673 44.6412 41.827 56.2832 26.25C59.4409 31.4422 54.1125 50.9134 51.0535 60H12.5794Z" fill="#FFE600" stroke="#FFE500"/>
<path d="M29.6991 5.81723C30.3503 5.39988 31.2084 5.84813 31.2379 6.62103L31.8058 21.5016C31.8351 22.269 31.0243 22.7817 30.3436 22.4261L17.2382 15.5808C16.5575 15.2253 16.515 14.2669 17.1616 13.8526L29.6991 5.81723Z" fill="#F6CAC9"/>
<circle cx="30.5" cy="5.5" r="1.5" fill="#FFFEF0"/>
<rect x="15.9813" y="13" width="20.0285" height="2" rx="1" transform="rotate(29.3823 15.9813 13)" fill="#FFFEF0"/>
<rect x="10" y="35.1315" width="19.4596" height="3.59151" rx="1" transform="rotate(-3.33347 10 35.1315)" fill="#91A8D2"/>
<rect x="29.3531" y="48.4342" width="12.9988" height="3.59151" rx="1" transform="rotate(-100.43 29.3531 48.4342)" fill="#91A8D2"/>
<rect x="25.0352" y="46.0104" width="9.99786" height="2.96481" rx="1" transform="rotate(-90.2018 25.0352 46.0104)" fill="#91A8D2"/>
</svg>
