<svg xmlns="http://www.w3.org/2000/svg" width="288.959" height="254.046" viewBox="0 0 288.959 254.046">
  <g id="그룹_851" data-name="그룹 851" transform="translate(-230.587 -344.244)">
    <path id="Icon_ionic-ios-water" data-name="Icon ionic-ios-water" d="M119.9,51.018C103.752,25.837,88.226,10.34,77.3.957A3.71,3.71,0,0,0,72.426.9C61.657,9.744,46.164,25.935,30.069,50.825,12.618,77.733.605,106.924.075,139.285c0,.621-.046,1.294-.045,1.916a73.869,73.869,0,0,0,5.135,26.982A75.078,75.078,0,0,0,75.03,215.424c41.422.041,74.986-33.116,74.945-74.073C149.943,108.368,137.261,78.064,119.9,51.018ZM79.735,187.83Z" transform="matrix(-0.94, 0.342, -0.342, -0.94, 445.198, 547.01)" fill="#f68b81" opacity="0.74"/>
    <path id="Icon_ionic-ios-water-2" data-name="Icon ionic-ios-water" d="M119.85,164.39c-16.144,25.181-31.67,40.678-42.6,50.061a3.71,3.71,0,0,1-4.873.057c-10.768-8.843-26.262-25.035-42.356-49.925C12.572,137.675.559,108.484.029,76.122c0-.621-.046-1.294-.045-1.916A73.869,73.869,0,0,1,5.119,47.225,75.078,75.078,0,0,1,74.984-.016C116.407-.057,149.971,33.1,149.93,74.057,149.9,107.04,137.215,137.344,119.85,164.39ZM79.689,27.578Z" transform="translate(378.653 344.264) rotate(20)" fill="#df2a19" opacity="0.78"/>
  </g>
</svg>
