<svg xmlns="http://www.w3.org/2000/svg" width="28" height="40" viewBox="0 0 28 40">
  <path id="Icon_ionic-ios-water" data-name="Icon ionic-ios-water" d="M29.15,12.837A41.548,41.548,0,0,0,21.2,3.548a.7.7,0,0,0-.91-.01,41.049,41.049,0,0,0-7.919,9.279c-3.264,5-5.512,10.423-5.617,16.432,0,.115-.009.24-.009.356A13.635,13.635,0,0,0,7.7,34.615a13.959,13.959,0,0,0,13.037,8.759A13.891,13.891,0,0,0,34.75,29.605C34.75,23.48,32.387,17.856,29.15,12.837ZM21.625,38.249Z" transform="translate(-6.75 -3.374)" fill="#aaa"/>
</svg>
