<svg xmlns="http://www.w3.org/2000/svg" width="32" height="36" viewBox="0 0 32 36">
  <path id="Icon_awesome-share-alt" data-name="Icon awesome-share-alt" d="M25.143,22.5a6.9,6.9,0,0,0-4.271,1.469l-7.32-4.5a6.685,6.685,0,0,0,0-2.931l7.32-4.5A6.9,6.9,0,0,0,25.143,13.5,6.8,6.8,0,0,0,32,6.75a6.858,6.858,0,0,0-13.714,0,6.67,6.67,0,0,0,.163,1.465l-7.32,4.5A6.9,6.9,0,0,0,6.857,11.25a6.751,6.751,0,1,0,0,13.5,6.9,6.9,0,0,0,4.271-1.469l7.32,4.5a6.67,6.67,0,0,0-.163,1.465,6.858,6.858,0,1,0,6.857-6.75Z" fill="#FFCC00"/>
</svg>
