<svg xmlns="http://www.w3.org/2000/svg" width="30" height="22" viewBox="0 0 30 22">
  <path id="Icon_ionic-ios-arrow-round-forward" data-name="Icon ionic-ios-arrow-round-forward" d="M27.007,11.673A1.6,1.6,0,0,0,27,13.781l6.336,6.978H9.219a1.5,1.5,0,0,0,0,2.979h24.1l-6.336,6.978A1.617,1.617,0,0,0,27,32.823a1.264,1.264,0,0,0,1.907-.011l8.586-9.51h0a1.7,1.7,0,0,0,.281-.47,1.545,1.545,0,0,0,.1-.573,1.574,1.574,0,0,0-.386-1.043L28.9,11.707A1.245,1.245,0,0,0,27.007,11.673Z" transform="translate(-7.875 -11.252)" fill="#c1c1c1"/>
</svg>
