<svg xmlns="http://www.w3.org/2000/svg" width="45.273" height="30.414" viewBox="0 0 45.273 30.414">
  <path id="Icon_ionic-md-arrow-round-down" data-name="Icon ionic-md-arrow-round-down" d="M.859,31.8,13.136,44.448a2.791,2.791,0,0,0,2.052.825h.037a2.791,2.791,0,0,0,2.052-.825L29.555,31.8a2.709,2.709,0,0,0,0-3.958,3.031,3.031,0,0,0-4.141,0l-7.275,7.6V2.8a2.935,2.935,0,0,0-5.864,0V35.442L5,27.837a3.031,3.031,0,0,0-4.141,0A2.709,2.709,0,0,0,.859,31.8Z" transform="translate(0 30.414) rotate(-90)" fill="#df2a19"/>
</svg>
