<svg xmlns="http://www.w3.org/2000/svg" width="34" height="26" viewBox="0 0 34 26">
  <path id="Icon_material-format-list-bulleted" data-name="Icon material-format-list-bulleted" d="M6.507,17.15a2.6,2.6,0,1,0,0,5.2,2.6,2.6,0,1,0,0-5.2Zm0-10.4A2.678,2.678,0,0,0,3.75,9.35a2.678,2.678,0,0,0,2.757,2.6,2.678,2.678,0,0,0,2.757-2.6A2.678,2.678,0,0,0,6.507,6.75Zm0,20.8a2.6,2.6,0,1,0,0,5.2,2.6,2.6,0,1,0,0-5.2Zm5.514,4.333H37.75V28.417H12.02Zm0-10.4H37.75V18.017H12.02Zm0-13.867v3.467H37.75V7.617Z" transform="translate(-3.75 -6.75)" fill="#df2a19"/>
</svg>
