<svg xmlns="http://www.w3.org/2000/svg" width="45.273" height="30.414" viewBox="0 0 45.273 30.414">
  <path id="Icon_ionic-md-arrow-round-down" data-name="Icon ionic-md-arrow-round-down" d="M.859,13.478,13.136.825A2.791,2.791,0,0,1,15.189,0h.037a2.791,2.791,0,0,1,2.052.825L29.555,13.478a2.709,2.709,0,0,1,0,3.958,3.031,3.031,0,0,1-4.141,0l-7.275-7.6V42.469a2.935,2.935,0,0,1-5.864,0V9.831L5,17.436a3.031,3.031,0,0,1-4.141,0A2.709,2.709,0,0,1,.859,13.478Z" transform="translate(0 30.414) rotate(-90)" fill="#5771f0"/>
</svg>
