<svg xmlns="http://www.w3.org/2000/svg" width="50" height="36" viewBox="0 0 50 36">
  <path id="Icon_awesome-address-card" data-name="Icon awesome-address-card" d="M45.833,2.25H4.167A4.022,4.022,0,0,0,0,6.107V34.393A4.022,4.022,0,0,0,4.167,38.25H45.833A4.022,4.022,0,0,0,50,34.393V6.107A4.022,4.022,0,0,0,45.833,2.25ZM15.278,9.964a5.366,5.366,0,0,1,5.556,5.143,5.366,5.366,0,0,1-5.556,5.143,5.366,5.366,0,0,1-5.556-5.143A5.366,5.366,0,0,1,15.278,9.964ZM25,28.993a1.778,1.778,0,0,1-1.944,1.543H7.5a1.778,1.778,0,0,1-1.944-1.543V27.45c0-2.555,2.613-4.629,5.833-4.629h.434a9.605,9.605,0,0,0,6.91,0h.434c3.22,0,5.833,2.073,5.833,4.629ZM44.444,24.75a.672.672,0,0,1-.694.643H31.25a.672.672,0,0,1-.694-.643V23.464a.672.672,0,0,1,.694-.643h12.5a.672.672,0,0,1,.694.643Zm0-5.143a.672.672,0,0,1-.694.643H31.25a.672.672,0,0,1-.694-.643V18.321a.672.672,0,0,1,.694-.643h12.5a.672.672,0,0,1,.694.643Zm0-5.143a.672.672,0,0,1-.694.643H31.25a.672.672,0,0,1-.694-.643V13.179a.672.672,0,0,1,.694-.643h12.5a.672.672,0,0,1,.694.643Z" transform="translate(0 -2.25)" fill="#878787"/>
</svg>
